<svg version="1.1" xmlns="http://www.w3.org/2000/svg" xmlns:xlink="http://www.w3.org/1999/xlink" width="600" height="400"><defs/><g transform="scale(1,1)"><g id="background-7055dbf8"><rect fill="white" stroke="none" x="0" y="0" width="600" height="400" class="dcg-svg-background"/></g><g id="background-images-7055dbf8"/><g id="graphpaper-7055dbf8"><g id="grid-7055dbf8"><g><path fill="none" stroke="rgb(0,0,0)" class="dcg-svg-minor-gridline" paint-order="fill stroke markers" d=" M -0.5 0 L -0.5 400" stroke-opacity="0.12" stroke-miterlimit="10" stroke-dasharray=""/><path fill="none" stroke="rgb(0,0,0)" class="dcg-svg-minor-gridline" paint-order="fill stroke markers" d=" M 29.5 0 L 29.5 400" stroke-opacity="0.12" stroke-miterlimit="10" stroke-dasharray=""/><path fill="none" stroke="rgb(0,0,0)" class="dcg-svg-minor-gridline" paint-order="fill stroke markers" d=" M 59.5 0 L 59.5 400" stroke-opacity="0.12" stroke-miterlimit="10" stroke-dasharray=""/><path fill="none" stroke="rgb(0,0,0)" class="dcg-svg-minor-gridline" paint-order="fill stroke markers" d=" M 89.5 0 L 89.5 400" stroke-opacity="0.12" stroke-miterlimit="10" stroke-dasharray=""/><path fill="none" stroke="rgb(0,0,0)" class="dcg-svg-minor-gridline" paint-order="fill stroke markers" d=" M 119.5 0 L 119.5 400" stroke-opacity="0.12" stroke-miterlimit="10" stroke-dasharray=""/><path fill="none" stroke="rgb(0,0,0)" class="dcg-svg-minor-gridline" paint-order="fill stroke markers" d=" M 149.5 0 L 149.5 400" stroke-opacity="0.12" stroke-miterlimit="10" stroke-dasharray=""/><path fill="none" stroke="rgb(0,0,0)" class="dcg-svg-minor-gridline" paint-order="fill stroke markers" d=" M 179.5 0 L 179.5 400" stroke-opacity="0.12" stroke-miterlimit="10" stroke-dasharray=""/><path fill="none" stroke="rgb(0,0,0)" class="dcg-svg-minor-gridline" paint-order="fill stroke markers" d=" M 209.5 0 L 209.5 400" stroke-opacity="0.12" stroke-miterlimit="10" stroke-dasharray=""/><path fill="none" stroke="rgb(0,0,0)" class="dcg-svg-minor-gridline" paint-order="fill stroke markers" d=" M 239.5 0 L 239.5 400" stroke-opacity="0.12" stroke-miterlimit="10" stroke-dasharray=""/><path fill="none" stroke="rgb(0,0,0)" class="dcg-svg-minor-gridline" paint-order="fill stroke markers" d=" M 269.5 0 L 269.5 400" stroke-opacity="0.12" stroke-miterlimit="10" stroke-dasharray=""/><path fill="none" stroke="rgb(0,0,0)" class="dcg-svg-minor-gridline" paint-order="fill stroke markers" d=" M 329.5 0 L 329.5 400" stroke-opacity="0.12" stroke-miterlimit="10" stroke-dasharray=""/><path fill="none" stroke="rgb(0,0,0)" class="dcg-svg-minor-gridline" paint-order="fill stroke markers" d=" M 359.5 0 L 359.5 400" stroke-opacity="0.12" stroke-miterlimit="10" stroke-dasharray=""/><path fill="none" stroke="rgb(0,0,0)" class="dcg-svg-minor-gridline" paint-order="fill stroke markers" d=" M 389.5 0 L 389.5 400" stroke-opacity="0.12" stroke-miterlimit="10" stroke-dasharray=""/><path fill="none" stroke="rgb(0,0,0)" class="dcg-svg-minor-gridline" paint-order="fill stroke markers" d=" M 419.5 0 L 419.5 400" stroke-opacity="0.12" stroke-miterlimit="10" stroke-dasharray=""/><path fill="none" stroke="rgb(0,0,0)" class="dcg-svg-minor-gridline" paint-order="fill stroke markers" d=" M 449.5 0 L 449.5 400" stroke-opacity="0.12" stroke-miterlimit="10" stroke-dasharray=""/><path fill="none" stroke="rgb(0,0,0)" class="dcg-svg-minor-gridline" paint-order="fill stroke markers" d=" M 479.5 0 L 479.5 400" stroke-opacity="0.12" stroke-miterlimit="10" stroke-dasharray=""/><path fill="none" stroke="rgb(0,0,0)" class="dcg-svg-minor-gridline" paint-order="fill stroke markers" d=" M 509.5 0 L 509.5 400" stroke-opacity="0.12" stroke-miterlimit="10" stroke-dasharray=""/><path fill="none" stroke="rgb(0,0,0)" class="dcg-svg-minor-gridline" paint-order="fill stroke markers" d=" M 539.5 0 L 539.5 400" stroke-opacity="0.12" stroke-miterlimit="10" stroke-dasharray=""/><path fill="none" stroke="rgb(0,0,0)" class="dcg-svg-minor-gridline" paint-order="fill stroke markers" d=" M 569.5 0 L 569.5 400" stroke-opacity="0.12" stroke-miterlimit="10" stroke-dasharray=""/><path fill="none" stroke="rgb(0,0,0)" class="dcg-svg-minor-gridline" paint-order="fill stroke markers" d=" M 0 370.5 L 600 370.5" stroke-opacity="0.12" stroke-miterlimit="10" stroke-dasharray=""/><path fill="none" stroke="rgb(0,0,0)" class="dcg-svg-minor-gridline" paint-order="fill stroke markers" d=" M 0 342.5 L 600 342.5" stroke-opacity="0.12" stroke-miterlimit="10" stroke-dasharray=""/><path fill="none" stroke="rgb(0,0,0)" class="dcg-svg-minor-gridline" paint-order="fill stroke markers" d=" M 0 313.5 L 600 313.5" stroke-opacity="0.12" stroke-miterlimit="10" stroke-dasharray=""/><path fill="none" stroke="rgb(0,0,0)" class="dcg-svg-minor-gridline" paint-order="fill stroke markers" d=" M 0 285.5 L 600 285.5" stroke-opacity="0.12" stroke-miterlimit="10" stroke-dasharray=""/><path fill="none" stroke="rgb(0,0,0)" class="dcg-svg-minor-gridline" paint-order="fill stroke markers" d=" M 0 256.5 L 600 256.5" stroke-opacity="0.12" stroke-miterlimit="10" stroke-dasharray=""/><path fill="none" stroke="rgb(0,0,0)" class="dcg-svg-minor-gridline" paint-order="fill stroke markers" d=" M 0 228.5 L 600 228.5" stroke-opacity="0.12" stroke-miterlimit="10" stroke-dasharray=""/><path fill="none" stroke="rgb(0,0,0)" class="dcg-svg-minor-gridline" paint-order="fill stroke markers" d=" M 0 170.5 L 600 170.5" stroke-opacity="0.12" stroke-miterlimit="10" stroke-dasharray=""/><path fill="none" stroke="rgb(0,0,0)" class="dcg-svg-minor-gridline" paint-order="fill stroke markers" d=" M 0 142.5 L 600 142.5" stroke-opacity="0.12" stroke-miterlimit="10" stroke-dasharray=""/><path fill="none" stroke="rgb(0,0,0)" class="dcg-svg-minor-gridline" paint-order="fill stroke markers" d=" M 0 113.5 L 600 113.5" stroke-opacity="0.12" stroke-miterlimit="10" stroke-dasharray=""/><path fill="none" stroke="rgb(0,0,0)" class="dcg-svg-minor-gridline" paint-order="fill stroke markers" d=" M 0 85.5 L 600 85.5" stroke-opacity="0.12" stroke-miterlimit="10" stroke-dasharray=""/><path fill="none" stroke="rgb(0,0,0)" class="dcg-svg-minor-gridline" paint-order="fill stroke markers" d=" M 0 56.5 L 600 56.5" stroke-opacity="0.12" stroke-miterlimit="10" stroke-dasharray=""/><path fill="none" stroke="rgb(0,0,0)" class="dcg-svg-minor-gridline" paint-order="fill stroke markers" d=" M 0 28.5 L 600 28.5" stroke-opacity="0.12" stroke-miterlimit="10" stroke-dasharray=""/><path fill="none" stroke="rgb(0,0,0)" class="dcg-svg-minor-gridline" paint-order="fill stroke markers" d=" M 0 -0.5 L 600 -0.5" stroke-opacity="0.12" stroke-miterlimit="10" stroke-dasharray=""/><path fill="none" stroke="rgb(0,0,0)" class="dcg-svg-major-gridline" paint-order="fill stroke markers" d=" M -0.5 0 L -0.5 400" stroke-opacity="0.31818181818181823" stroke-miterlimit="10" stroke-dasharray=""/><path fill="none" stroke="rgb(0,0,0)" class="dcg-svg-major-gridline" paint-order="fill stroke markers" d=" M 149.5 0 L 149.5 400" stroke-opacity="0.31818181818181823" stroke-miterlimit="10" stroke-dasharray=""/><path fill="none" stroke="rgb(0,0,0)" class="dcg-svg-major-gridline" paint-order="fill stroke markers" d=" M 449.5 0 L 449.5 400" stroke-opacity="0.31818181818181823" stroke-miterlimit="10" stroke-dasharray=""/><path fill="none" stroke="rgb(0,0,0)" class="dcg-svg-major-gridline" paint-order="fill stroke markers" d=" M 0 342.5 L 600 342.5" stroke-opacity="0.31818181818181823" stroke-miterlimit="10" stroke-dasharray=""/><path fill="none" stroke="rgb(0,0,0)" class="dcg-svg-major-gridline" paint-order="fill stroke markers" d=" M 0 56.5 L 600 56.5" stroke-opacity="0.31818181818181823" stroke-miterlimit="10" stroke-dasharray=""/></g></g><g id="axis-7055dbf8"><g id="yaxis-7055dbf8"><title>Y axis</title><path fill="none" stroke="rgb(0,0,0)" class="dcg-svg-axis-line" paint-order="fill stroke markers" d=" M 299.75 0 L 299.75 400" stroke-opacity="0.9" stroke-miterlimit="10" stroke-width="1.5" stroke-dasharray=""/></g><g id="xaxis-7055dbf8"><title>X axis</title><path fill="none" stroke="rgb(0,0,0)" class="dcg-svg-axis-line" paint-order="fill stroke markers" d=" M 0 199.75 L 600 199.75" stroke-opacity="0.9" stroke-miterlimit="10" stroke-width="1.5" stroke-dasharray=""/></g><g><g class="dcg-svg-axis-value"><text fill="none" stroke="#ffffff" font-family="Arial" font-size="14px" font-style="normal" font-weight="normal" text-decoration="normal" x="291.10693359375" y="215.808" text-anchor="middle" stroke-miterlimit="2" stroke-width="3" stroke-dasharray="">0</text><text fill="#000000" stroke="none" font-family="Arial" font-size="14px" font-style="normal" font-weight="normal" text-decoration="normal" x="291.10693359375" y="215.808" text-anchor="middle">0</text></g><g class="dcg-svg-axis-value dcg-svg-offcenter-axis-value"><text fill="none" stroke="#ffffff" font-family="Arial" font-size="14px" font-style="normal" font-weight="normal" text-decoration="normal" x="13.1171875" y="215.808" text-anchor="middle" stroke-miterlimit="2" stroke-width="3" stroke-dasharray="">-10</text><text fill="#000000" stroke="none" font-family="Arial" font-size="14px" font-style="normal" font-weight="normal" text-decoration="normal" x="13.1171875" y="215.808" text-anchor="middle">-10</text></g><g class="dcg-svg-axis-value"><text fill="none" stroke="#ffffff" font-family="Arial" font-size="14px" font-style="normal" font-weight="normal" text-decoration="normal" x="147.6689453125" y="215.808" text-anchor="middle" stroke-miterlimit="2" stroke-width="3" stroke-dasharray="">-5</text><text fill="#000000" stroke="none" font-family="Arial" font-size="14px" font-style="normal" font-weight="normal" text-decoration="normal" x="147.6689453125" y="215.808" text-anchor="middle">-5</text></g><g class="dcg-svg-axis-value"><text fill="none" stroke="#ffffff" font-family="Arial" font-size="14px" font-style="normal" font-weight="normal" text-decoration="normal" x="450" y="215.808" text-anchor="middle" stroke-miterlimit="2" stroke-width="3" stroke-dasharray="">5</text><text fill="#000000" stroke="none" font-family="Arial" font-size="14px" font-style="normal" font-weight="normal" text-decoration="normal" x="450" y="215.808" text-anchor="middle">5</text></g><g class="dcg-svg-axis-value dcg-svg-offcenter-axis-value"><text fill="none" stroke="#ffffff" font-family="Arial" font-size="14px" font-style="normal" font-weight="normal" text-decoration="normal" x="589.2138671875" y="215.808" text-anchor="middle" stroke-miterlimit="2" stroke-width="3" stroke-dasharray="">10</text><text fill="#000000" stroke="none" font-family="Arial" font-size="14px" font-style="normal" font-weight="normal" text-decoration="normal" x="589.2138671875" y="215.808" text-anchor="middle">10</text></g><g class="dcg-svg-axis-value"><text fill="none" stroke="#ffffff" font-family="Arial" font-size="14px" font-style="normal" font-weight="normal" text-decoration="normal" x="288.77587890625" y="346.6651428571428" text-anchor="middle" stroke-miterlimit="2" stroke-width="3" stroke-dasharray="">-5</text><text fill="#000000" stroke="none" font-family="Arial" font-size="14px" font-style="normal" font-weight="normal" text-decoration="normal" x="288.77587890625" y="346.6651428571428" text-anchor="middle">-5</text></g><g class="dcg-svg-axis-value"><text fill="none" stroke="#ffffff" font-family="Arial" font-size="14px" font-style="normal" font-weight="normal" text-decoration="normal" x="291.10693359375" y="60.95085714285717" text-anchor="middle" stroke-miterlimit="2" stroke-width="3" stroke-dasharray="">5</text><text fill="#000000" stroke="none" font-family="Arial" font-size="14px" font-style="normal" font-weight="normal" text-decoration="normal" x="291.10693359375" y="60.95085714285717" text-anchor="middle">5</text></g></g></g></g><g id="expressions-7055dbf8"><g id="sketch-7055dbf8"><title>x(t)</title><path fill="none" stroke="#0000ff" class="dcg-svg-point" paint-order="fill stroke markers" d=" M 329.4 170.82857142857145 L 329.4 171.02857142857144 L 329.6 171.02857142857144 L 329.6 170.82857142857145" stroke-linecap="round" stroke-linejoin="round" stroke-miterlimit="10" stroke-width="9" stroke-opacity="0.9" stroke-dasharray=""/></g><g id="sketch-7055dbf8"><title>Expression 2</title><path fill="#0000ff" stroke="none" paint-order="stroke fill markers" d="" fill-opacity="0.4"/><g><path fill="none" stroke="#0000ff" class="dcg-svg-curve" paint-order="fill stroke markers" d=" M -0.5 249.8026834904184 L -0.5 249.8026834904184 L 2.13671875 242.65369585595616 L 5.212890625 233.37606874992076 L 8.875 221.30785160113837 L 14.1484375 202.75841097769808 L 22.3515625 173.9357213998592 L 26.16015625 161.72271241743073 L 29.236328125 152.83627568075514 L 31.873046875 146.0889591611082 L 34.36328125 140.56585940184067 L 36.560546875 136.44785040197712 L 38.611328125 133.28944590144016 L 40.515625 130.9788442551233 L 42.2734375 129.3965455459679 L 43.73828125 128.49097440867587 L 45.056640625 128.0014069214099 L 46.375 127.8224011127482 L 47.546875 127.92466222081595 L 48.71875 128.2725874525284 L 50.037109375 128.95612917093285 L 51.501953125 130.07482124524512 L 53.259765625 131.90796507555922 L 55.1640625 134.48216207415976 L 57.068359375 137.64535692648195 L 59.119140625 141.67759471668091 L 61.462890625 147.02688885036218 L 64.099609375 153.90116561871886 L 67.029296875 162.46176795878992 L 70.544921875 173.76431234593227 L 75.0859375 189.48413252503082 L 86.21875 228.49502778104903 L 89.734375 239.51182061934347 L 92.6640625 247.76382933600857 L 95.30078125 254.31135201670043 L 97.64453125 259.33593700394863 L 99.841796875 263.3021991698958 L 101.892578125 266.3107752775436 L 103.796875 268.4765700476327 L 105.5546875 269.9215085701419 L 107.01953125 270.71069167116684 L 108.337890625 271.0945674608573 L 109.509765625 271.1747434985364 L 110.681640625 271.00891422774794 L 112 270.5290445615876 L 113.318359375 269.74065275032075 L 114.9296875 268.3631846824876 L 116.6875 266.3513674645328 L 118.591796875 263.5901022216523 L 120.642578125 259.9679635661638 L 122.83984375 255.38334451941935 L 125.18359375 249.75188245307783 L 127.8203125 242.59676363108218 L 130.896484375 233.31323884302347 L 134.55859375 221.2399440843071 L 139.83203125 202.68720739760292 L 148.03515625 173.86914566759117 L 151.84375 161.66215807608003 L 154.919921875 152.78219587532521 L 157.556640625 146.04145186170084 L 159.900390625 140.825290363387 L 162.09765625 136.66490577119487 L 164.1484375 133.46457868306618 L 166.052734375 131.11339186029227 L 167.810546875 129.49253951143288 L 169.421875 128.48129090643056 L 170.740234375 127.99639586362207 L 172.05859375 127.82208426547567 L 173.23046875 127.928519795044 L 174.40234375 128.28060620811573 L 175.720703125 128.9687956497786 L 177.185546875 130.09258646416208 L 178.943359375 131.93172067115364 L 180.84765625 134.5121988790301 L 182.751953125 137.68140283663075 L 184.94921875 142.03196747433202 L 187.29296875 147.43489752383493 L 189.9296875 154.36279112786607 L 192.859375 162.97353540188564 L 196.375 174.3217024413002 L 201.0625 190.59556555455592 L 211.609375 227.5972992100627 L 215.271484375 239.1345766507217 L 218.201171875 247.42741869731543 L 220.837890625 254.0178804515177 L 223.181640625 259.08493463898054 L 225.37890625 263.09415037256076 L 227.4296875 266.14509065125037 L 229.333984375 268.35179185007803 L 231.091796875 269.8355020544264 L 232.556640625 270.65751494874826 L 233.875 271.0711863954281 L 235.046875 271.17793675698414 L 236.21875 271.0386708500261 L 237.537109375 270.588558359204 L 238.85546875 269.8296652188196 L 240.3203125 268.6283546703188 L 242.078125 266.69820796213355 L 243.982421875 264.02237829488024 L 246.033203125 260.4878463144797 L 248.23046875 255.9910078998014 L 250.57421875 250.44507812141157 L 253.2109375 243.37476378963572 L 256.287109375 234.17302122602493 L 259.94921875 222.17048955838885 L 265.076171875 204.18859947174914 L 273.71875 173.80259527891045 L 277.52734375 161.60164114849002 L 280.603515625 152.72816226409282 L 283.240234375 145.99399742168563 L 285.583984375 140.78437937333825 L 287.78125 136.63064074392213 L 289.83203125 133.43689100052097 L 291.736328125 131.09207367425182 L 293.494140625 129.47727361475785 L 295.10546875 128.47167762692675 L 296.423828125 127.99145550803598 L 297.595703125 127.82531154990573 L 298.767578125 127.90517271130324 L 299.939453125 128.2307648891247 L 301.2578125 128.88935730366342 L 302.72265625 129.9806727563083 L 304.333984375 131.61137709606612 L 306.23828125 134.10538626676805 L 308.142578125 137.1918065105321 L 310.193359375 141.1459780619586 L 312.537109375 146.4129371910221 L 315.02734375 152.80515142203234 L 317.95703125 161.24288285559302 L 321.326171875 171.94724885504843 L 325.720703125 187.03259126922353 L 338.318359375 231.00375117059855 L 341.6875 241.35254041240333 L 344.6171875 249.39790420945934 L 347.107421875 255.40229060583658 L 349.451171875 260.2643006254556 L 351.501953125 263.83681885994383 L 353.40625 266.5496757480882 L 355.310546875 268.6551283243051 L 357.068359375 270.0429179510461 L 358.533203125 270.78374204910085 L 359.8515625 271.1237523947941 L 361.0234375 271.1648245635639 L 362.1953125 270.9599254680851 L 363.513671875 270.436309890061 L 364.83203125 269.6045749697551 L 366.443359375 268.1749534166871 L 368.201171875 266.1076456828537 L 370.10546875 263.2884020050278 L 372.15625 259.60689612163543 L 374.353515625 254.96289412770224 L 376.84375 248.89458781172164 L 379.626953125 241.2121235630975 L 382.703125 231.78927241511408 L 386.51171875 219.09277910229005 L 392.37109375 198.34584654614088 L 399.255859375 174.22666034705097 L 403.064453125 161.98750582806932 L 406.140625 153.07290678149855 L 408.77734375 146.29697548114447 L 411.267578125 140.7435264408337 L 413.46484375 136.5964378813777 L 415.515625 133.4092686406587 L 417.419921875 131.0708231294313 L 419.177734375 129.46207695600435 L 420.7890625 128.46213457966974 L 422.107421875 127.98658585953666 L 423.279296875 127.82461442439927 L 424.451171875 127.90865050149534 L 425.623046875 128.23840565838606 L 426.94140625 128.9016493688552 L 428.40625 129.9980694376885 L 430.017578125 131.63428007564187 L 431.921875 134.13460239632673 L 433.826171875 137.22707112058987 L 435.876953125 141.18739764187416 L 438.220703125 146.46085466278473 L 440.7109375 152.85925082441082 L 443.640625 161.30317627433453 L 447.009765625 172.01306196969568 L 451.404296875 187.10278663820935 L 464.001953125 231.06775790549068 L 467.37109375 241.41038349192857 L 470.30078125 249.44904909901896 L 472.791015625 255.44687438606965 L 475.134765625 260.302076695886 L 477.185546875 263.8682097392957 L 479.08984375 266.5748407626329 L 480.994140625 268.6738395036881 L 482.751953125 270.05551993791255 L 484.216796875 270.7911767008825 L 485.53515625 271.1265015658786 L 486.70703125 271.16339820370604 L 487.87890625 270.9543284729019 L 489.197265625 270.42604460310645 L 490.662109375 269.47788525383726 L 492.2734375 268.0017835354869 L 494.03125 265.88506166827926 L 495.935546875 263.0142367185492 L 497.986328125 259.27997228678737 L 500.18359375 254.5832682878788 L 502.673828125 248.46079853921836 L 505.45703125 240.72578207814854 L 508.6796875 230.78431939217762 L 512.634765625 217.5042032036252 L 519.2265625 194.07978931871557 L 525.232421875 173.18055249114903 L 528.89453125 161.4807197739096 L 531.970703125 152.62023383788687 L 534.607421875 145.89924730746992 L 536.951171875 140.70273160626834 L 539.1484375 136.56229721738111 L 541.19921875 133.38171163079215 L 543.103515625 131.049640246843 L 544.861328125 129.4469495501986 L 546.47265625 128.4526617740957 L 547.791015625 127.9817869229392 L 548.962890625 127.82398817095066 L 550.134765625 127.91219908065113 L 551.306640625 128.2461168905519 L 552.625 128.91401124114122 L 554.08984375 130.0155348420314 L 555.84765625 131.82850411208017 L 557.751953125 134.38154233954697 L 559.65625 137.52448993686107 L 561.70703125 141.53615255296705 L 564.05078125 146.8637635236902 L 566.541015625 153.3136268816176 L 569.470703125 161.80904139731925 L 572.83984375 172.56468734739158 L 577.234375 187.69048733091964 L 589.5390625 230.6597855145077 L 592.908203125 241.04147163043822 L 595.837890625 249.12263928948678 L 598.474609375 255.49140284647305 L 599.5 257.7112537855466" stroke-linecap="round" stroke-linejoin="round" stroke-miterlimit="10" stroke-width="2.5" stroke-opacity="0.9" stroke-dasharray=""/></g></g></g><g id="labels-7055dbf8"><g transform="rotate(0,0,0) translate(330,171.42857142857144)"><g class="dcg-svg-label"><g transform="translate(6.5,-25.50147792271207)"><g><text fill="none" stroke="#FFF" font-family="arial, sans-serif" font-size="15.4px" font-style="normal" font-weight="normal" text-decoration="normal" x="0" y="13.822128247070312" text-anchor="start" stroke-linecap="round" stroke-linejoin="round" stroke-miterlimit="2" stroke-width="3" stroke-dasharray="">x(t)</text></g></g><g transform="translate(6.5,-25.50147792271207)"><g><text fill="rgb(0, 0, 255)" stroke="none" font-family="arial, sans-serif" font-size="15.4px" font-style="normal" font-weight="normal" text-decoration="normal" x="0" y="13.822128247070312" text-anchor="start">x(t)</text></g></g></g></g></g></g></svg>